<?xml version="1.0" standalone="no"?>
<!DOCTYPE svg PUBLIC "-//W3C//DTD SVG 20010904//EN"
 "http://www.w3.org/TR/2001/REC-SVG-20010904/DTD/svg10.dtd">
<svg version="1.0" xmlns="http://www.w3.org/2000/svg"
 width="96.000000pt" height="96.000000pt" viewBox="0 0 96.000000 96.000000"
 preserveAspectRatio="xMidYMid meet">

<g transform="translate(0.000000,96.000000) scale(0.100000,-0.100000)"
fill="#000000" stroke="none">
<path d="M574 603 c-31 -87 -74 -203 -95 -258 -35 -95 -36 -100 -17 -103 34
-6 44 4 68 77 l25 72 109 -3 109 -3 25 -72 c24 -67 28 -73 54 -73 15 0 28 3
28 8 0 4 -42 121 -92 260 l-93 252 -31 0 -32 0 -58 -157z m136 -42 c22 -61 40
-114 40 -116 0 -3 -38 -5 -85 -5 -47 0 -85 4 -85 9 0 8 45 139 71 209 5 13 12
23 14 20 3 -3 23 -55 45 -117z"/>
<path d="M130 480 l0 -260 35 0 35 0 0 120 0 120 110 0 110 0 0 25 0 25 -110
0 -110 0 0 90 0 90 125 0 125 0 0 25 0 25 -160 0 -160 0 0 -260z"/>
</g>
</svg>
